<svg id="canvas" width="3584" height="2884" version="1.1" xmlns="http://www.w3.org/2000/svg">
			<defs id="defs"><pattern id="smallGrid" width="30" height="30" patternUnits="userSpaceOnUse"><path d="M 30 0 L 0 0 0 30" fill="none" stroke="gray" stroke-width="0.5"></path></pattern><pattern id="grid" width="300" height="300" patternUnits="userSpaceOnUse"><rect width="300" height="300" fill="url(#smallGrid)"></rect><path d="M 300 0 L 0 0 0 300" fill="none" stroke="gray" stroke-width="1"></path></pattern><pattern id="dots" width="30" height="30" x="-10" y="-10" patternUnits="userSpaceOnUse"><circle fill="gray" cx="10" cy="10" r="2"></circle></pattern></defs>
			<rect id="gridContainer" width="100%" height="100%" fill="none"></rect><g id="drawingArea"><rect id="rlx101e7wb" stroke="#ff851b" stroke-width="4" opacity="1" x="356" y="190" width="934" height="456"></rect><line id="slx101pyvg" stroke="#ff851b" stroke-width="4" opacity="1" x1="832" y1="189" x2="832" y2="648"></line><rect id="rlx1029dqz" stroke="#ff851b" stroke-width="4" opacity="1" x="537" y="236" width="605" height="2"></rect><rect id="rlx103ivyo" stroke="#ff851b" stroke-width="4" opacity="1" x="539.586" y="588.442" width="615.584" height="4.34274"></rect><rect id="rlx103rotw" stroke="#ff851b" stroke-width="4" opacity="1" x="1143.23" y="234.508" width="11.9425" height="359.362"></rect><rect id="rlx103zwc3" stroke="#ff851b" stroke-width="4" opacity="1" x="521.129" y="236.68" width="16.2853" height="356.105"></rect><rect id="rlx104i295" stroke="#0074d9" stroke-width="4" opacity="1" x="704.61" y="470.102" width="0" height="0"></rect><path id="llx105yigs" stroke="#0074d9" stroke-width="4" opacity="1" d="M 552.614163262915 257.3075770006107 L 552.614163262915 257.3075770006107 C 552.614163262915 257.3075770006107 552.614163262915 257.3075770006107 552.614163262915 257.3075770006107 C 552.614163262915 258.7551583058181 552.614163262915 260.20273961102544 552.614163262915 261.65032091623283 C 552.614163262915 263.0979022214402 552.614163262915 264.54548352664756 552.614163262915 265.99306483185495 C 552.614163262915 268.164436789666 552.614163262915 270.3358087474771 552.614163262915 272.50718070528814 C 552.614163262915 275.40234331570286 552.614163262915 278.29750592611765 552.614163262915 281.1926685365324 C 552.614163262915 285.17351712585264 552.614163262915 289.15436571517296 552.614163262915 293.1352143044932 C 552.614163262915 297.47795822011534 552.614163262915 301.82070213573746 552.614163262915 306.1634460513596 C 552.614163262915 310.14429464067985 552.2693038768157 314.14010887917806 552.614163262915 318.1059918193204 C 552.9955628541853 322.49208711892896 554.0899588684898 326.7868713647107 554.785535220726 331.1342235661868 C 555.537568401284 335.8344309446742 556.1481519817055 340.5573611503356 556.9569071785371 345.2481412919587 C 557.9578677479029 351.0537125942804 559.025981562627 356.848911127403 560.2139651152537 362.6191169544472 C 561.5595991080012 369.1550534906494 563.0918997407521 375.6512010630855 564.5567090308758 382.16146457474673 C 566.3489669926498 390.1270555159644 568.4574189510128 398.02602624511724 569.9851389254035 406.0465561106684 C 571.3545899956058 413.2361742292308 572.0706552560647 420.5357691181044 573.2421968621201 427.76027568877896 C 574.2422065209319 433.9270019181182 575.5249126294204 440.04610359053663 576.4992547988367 446.216937330173 C 577.696573108877 453.799953293762 578.741697251439 461.40672675633215 579.7563127355533 469.0163428871891 C 580.9131523764654 477.6926401940302 581.6679609196514 486.4237436855171 583.0133706722698 495.07280638092186 C 584.2025154651009 502.71730862055 585.9303776801578 510.26828176335584 587.356114587892 517.872211937938 C 588.1017667795602 521.8490236268353 588.4977779622523 525.9018650887858 589.527486545703 529.8147577058988 C 590.31438874028 532.8049860452912 591.4017443822218 535.7346453367475 592.7845444824196 538.5002455371431 C 593.9516218418396 540.8344002559832 595.3815150128336 543.0746132047894 597.1272883980417 545.0143614105763 C 598.6774541039022 546.7367677504212 600.554117361574 548.1895047831177 602.5557182925694 549.3571053261984 C 604.936390285443 550.7458306553747 607.4999562040637 551.8765066126804 610.1555201449081 552.614163262915 C 614.0540222456032 553.6970805131081 618.0671641651576 554.4350220252729 622.098065912869 554.785535220726 C 626.4244836657516 555.1617454601071 630.7884691321237 554.9920984839456 635.1262976597353 554.785535220726 C 638.3996899914622 554.6296593954057 641.7464598417141 554.6001382784408 644.8974714698851 553.6998492418205 C 646.9264737645067 553.1201343005 648.7487225262241 551.8447280501605 650.3259013644127 550.4427913051039 C 652.0578436317636 548.9032870674588 653.5893893586458 547.0649476612155 654.6686452800349 545.0143614105763 C 657.2359445907084 540.1364927202966 659.3908482008846 535.0275953861416 661.182761153468 529.8147577058988 C 663.3805483030635 523.4211950888938 665.0749455551596 516.8563193406113 666.6111910479957 510.2724100855993 C 667.6116027565251 505.98493133475904 668.058772353203 501.58692225435504 668.7825630058068 497.2441783387329 C 669.5063536584105 492.9014344231108 670.628704034009 488.60656414158495 670.9539349636178 484.21594659186655 C 671.3549422296283 478.8023485007253 670.9539349636178 473.35908680281125 670.9539349636178 467.9306569082836 C 670.9539349636178 462.1403316874541 670.9539349636178 456.3500064666246 670.9539349636178 450.5596812457951 C 670.9539349636178 445.13125135126745 670.9539349636178 439.7028214567398 670.9539349636178 434.27439156221214 C 670.9539349636178 426.67458970987343 670.9539349636178 419.0747878575348 670.9539349636178 411.47498600519606 C 670.9539349636178 406.40845143697027 670.9539349636178 401.3419168687444 670.9539349636178 396.27538230051863 C 670.9539349636178 392.6564290375002 670.9539349636178 389.0374757744818 670.9539349636178 385.4185225114633 C 670.9539349636178 381.79956924844487 670.8148472909817 378.17794221094766 670.9539349636178 374.561662722408 C 671.1769094651778 368.76432568184987 671.8325521229526 362.98861400790145 672.0396209425234 357.1906870599195 C 672.1946201194954 352.85071010470296 671.8509842010859 348.50110036611443 672.0396209425234 344.16245531305316 C 672.2132510183802 340.16896356834525 672.7275642348392 336.197336410989 673.1253069214289 332.2199095450923 C 673.4513907141942 328.95907161743884 673.7778789671339 325.6970902339459 674.2109929003344 322.44873573494255 C 674.5019279808454 320.2667226311103 674.80169040101 318.079569933839 675.29667887924 315.93461986150936 C 675.889102222662 313.36745204001386 676.5911903929386 310.81925593415576 677.468050837051 308.33481800917065 C 678.7652944435947 304.6592944572968 680.0022198644599 300.9306920976133 681.8107947526731 297.47795822011534 C 684.0002292794694 293.2981286689587 686.6115645428102 289.3340988222853 689.4105966050118 285.5354124521545 C 691.6926333563158 282.43836257538493 694.203868769163 279.48104620358606 697.0103984573506 276.84992462091026 C 700.020645199638 274.0278183000157 703.3004211615297 271.46540074509835 706.7815722675003 269.25012276857154 C 711.2895259555149 266.3814249671077 716.0196602504061 263.8360376975176 720.8954899932722 261.65032091623283 C 726.5385115743138 259.1206905523176 732.3432008154098 256.91318449490495 738.2664656557607 255.13620504279965 C 743.2294928630591 253.64729688061013 748.3280397454446 252.54932488195178 753.4660693604382 251.87914710608305 C 756.6957693497437 251.45788189008667 760.2255130310429 250.63902293097627 763.2372431705879 251.87914710608305 C 766.7944798963625 253.34389164022556 769.9772280421699 256.16014979193915 771.9227310018322 259.47894895842177 C 776.2730078700639 266.90000949834655 779.1189354806926 275.15632575085846 781.693904811982 283.36404049434344 C 784.9256926349049 293.66536417991034 786.8930209900686 304.3228505416524 789.2937066643207 314.84893388260383 C 791.5980501934902 324.9525939720393 793.8179860897197 335.0778661131176 795.8078225377539 345.2481412919587 C 797.0758614244705 351.7292289351773 798.4669851243881 358.2136400613528 799.0648804744704 364.79048891225824 C 799.5563474248111 370.1966253660045 799.2293028750063 375.64983937815697 799.0648804744704 381.0757785958412 C 798.8672693424814 387.59694595147835 798.5064502167002 394.115305655473 797.9791944955649 400.61812621614075 C 797.4204335384285 407.509511354156 796.3004246770643 414.34972986500014 795.8078225377539 421.2461598153458 C 795.214230869939 429.5564431647529 795.0920583211612 437.89369767813247 794.7221365588483 446.216937330173 C 794.3682673167602 454.17899527715355 794.0446279447712 462.14257025194166 793.6364505799428 470.10202886609466 C 793.3208214724827 476.25679646156635 792.7560790802917 482.39925612985684 792.5507646010373 488.5586905074887 C 792.3940303433867 493.26071823700386 792.5507646010373 497.9679689913366 792.5507646010373 502.6726082332606 C 792.5507646010373 506.65345682258084 792.3170011227897 510.64117487101316 792.5507646010373 514.6151540012214 C 792.6800307579861 516.8126786693504 793.0039049754129 519.0207845262214 793.6364505799428 521.1292698746546 C 794.1015073575344 522.6794591332932 794.9100707228154 524.125386067869 795.8078225377539 525.4720137902767 C 796.375610639505 526.3236959429034 797.0438219680624 527.2276646247533 797.9791944955649 527.6433857480878 C 800.3867568923665 528.7134134799996 802.9735073063275 529.4239343496624 805.5789963479036 529.8147577058988 C 810.2453298744298 530.5147077348778 814.9743763103584 530.9004436848044 819.6929140736755 530.9004436848044 C 825.4945375008011 530.9004436848044 831.3962837092784 531.0545465242801 837.063889736164 529.8147577058988 C 843.1051078723373 528.493241238611 848.7744931233784 525.7912056335862 854.4348653986524 523.3006418324657 C 857.8452746835533 521.8000617471092 860.918444712312 519.6255956693994 864.2060392088022 517.872211937938 C 866.3480989009062 516.7297801021492 868.8244651338357 516.1317059599412 870.7201550822354 514.6151540012214 C 872.5296317137446 513.1675726960141 874.0265884927323 511.2593451169441 875.0628989978575 509.18672410669376 C 876.9572404204251 505.3980412615584 878.1772074918749 501.29801523002817 879.4056429134796 497.2441783387329 C 881.7989240564709 489.34635056686153 884.6408898857011 481.51187604803613 885.9197587869128 473.35908680281125 C 887.5500031575642 462.9662789399085 887.2685671983502 452.3618786308144 888.0911307447238 441.87419341455086 C 888.7162329275732 433.90414058322244 889.8729888310505 425.97413624405874 890.2625027025349 417.98910187862924 C 890.597519527548 411.12125696586077 890.6336371811547 404.22705613388916 890.2625027025349 397.36106827942416 C 889.9087378981199 390.8164193977447 888.8353381666284 384.3305356007897 888.0911307447238 377.8187206591246 C 887.3877493359474 371.66413333233095 886.4487889805744 365.53407794378194 885.9197587869128 359.3620590177306 C 885.3625880102584 352.8617332900954 885.0378533543387 346.3406888800367 884.8340728080072 339.81971139743104 C 884.6758208553556 334.7556489125767 884.8340728080072 329.6866422609794 884.8340728080072 324.6201076927536 C 884.8340728080072 321.7249450823389 883.9185420034603 318.6812122751502 884.8340728080072 315.93461986150936 C 885.818534529596 312.9812346967431 888.061179371816 310.5361413398895 890.2625027025349 308.33481800917065 C 893.53960426189 305.05771644981553 897.3622522018712 302.36279872050125 901.1193624915902 299.6493301779264 C 903.8871135354522 297.6503988684706 906.7511742141784 295.7477383377268 909.8048503228345 294.22090028339875 C 911.8520394372965 293.1973057261677 914.0984778370596 292.6046504153897 916.3189661962676 292.0495283255877 C 918.4545635159595 291.5156289956647 920.6382427687682 291.1326761390616 922.8330820697008 290.96384234668216 C 925.3588875783 290.76954961525144 927.8996166379267 290.96384234668216 930.4328839220395 290.96384234668216 C 932.6042558798506 290.96384234668216 934.7845452139742 290.76725556654594 936.9469997954727 290.96384234668216 C 938.7847328135259 291.130908984687 940.8636917446028 290.99131176380934 942.3754296900004 292.0495283255877 C 944.6909828599036 293.67041554451987 946.4998493707927 296.05593224952986 947.803859584528 298.56364419902087 C 951.2458570053665 305.1828700083256 954.1300785341137 312.1138711532502 956.4893474157723 319.19167779822595 C 959.209587264894 327.3523973455913 960.9608553071529 335.80633175011104 963.0034632892055 344.16245531305316 C 964.9422038303348 352.0936666176732 967.3758735749545 359.95139651500585 968.4318931837331 368.04754684897483 C 969.5562418211441 376.6675530691259 969.3286450178937 385.41303968444157 969.5175791626386 394.10401034270757 C 969.6906186525688 402.06382687949394 969.5175791626386 410.02740469998867 969.5175791626386 417.98910187862924 C 969.5175791626386 425.95079905726976 969.5175791626386 433.91249623591034 969.5175791626386 441.87419341455086 C 969.5175791626386 448.7502046142859 969.1016144497866 455.6388092516972 969.5175791626386 462.50222701375594 C 969.8271912354724 467.6108262155117 970.7734203159027 472.66641129342526 971.6889511204497 477.70183071843337 C 972.2227927284059 480.6379595621926 973.0028007510266 483.5289107922303 973.8603230782608 486.3873185496776 C 974.0928514670566 487.1624131789969 974.1946647814273 488.2581527971931 974.9460090571663 488.5586905074887 C 978.0438808672417 489.7978392315188 981.4194707652397 490.2227221419034 984.7171828673161 490.73006246529974 C 990.8397997594791 491.67200352563253 997.0170824755363 492.21734975275814 1003.1738445087101 492.9014344231108 C 1006.7886026504625 493.30307421663883 1010.4359934512966 493.434087964098 1014.0307042977654 493.98712040201633 C 1015.1618102171923 494.16113669731277 1016.2941330564175 494.50501827917077 1017.287762234482 495.07280638092186 C 1018.8588279106243 495.97055819586035 1020.4529143678477 496.95600723833934 1021.6305061501041 498.32986431763845 C 1022.6837762600522 499.5586794459113 1022.9989044738646 501.2674043736722 1023.8018781079152 502.6726082332606 C 1024.4492561481954 503.8055198037511 1025.3897113860162 504.76258881055713 1025.9732500657262 505.92966616997717 C 1026.1350945757963 506.2533551901173 1026.229148705034 506.75945350957494 1025.9732500657262 507.0153521488827 C 1025.7173514264184 507.27125078819046 1025.1434627261285 507.27125078819046 1024.8875640868207 507.0153521488827 C 1024.631665447513 506.75945350957494 1025.1434627261285 506.1855648092849 1024.8875640868207 505.92966616997717 C 1024.631665447513 505.6737675306694 1023.478189087775 506.09151068004724 1023.8018781079152 505.92966616997717 C 1024.8254726651462 505.41786889136165 1026.070415804519 505.4206169978041 1027.0589360446318 504.84398019107164 C 1030.4401954996008 502.8715788423397 1033.6567088801537 500.62176502153636 1036.8301098547815 498.32986431763845 C 1040.1751681910557 495.9139888525516 1043.577600693838 493.53776808131516 1046.6012836649313 490.73006246529974 C 1048.672519233175 488.8067722947877 1050.6570472844203 486.68674588693636 1052.029713559459 484.21594659186655 C 1054.314488351045 480.1033519670118 1055.8062343319305 475.5928058371499 1057.4581434539866 471.1877148450002 C 1059.0654650888503 466.9015238186974 1060.4057295364003 462.51935132691045 1061.8008873696087 458.1594830981338 C 1063.301087554624 453.47135751996115 1064.9497960903816 448.82090615175935 1066.1436312852309 444.0455653723619 C 1067.4862924961583 438.6749205286523 1068.348740490151 433.19534413639445 1069.4006892219475 427.76027568877896 C 1070.5201518059182 421.97638567159714 1071.7482775905512 416.20990526221254 1072.657747158664 410.3893000262905 C 1073.5585959675902 404.6238676491633 1074.1269390431764 398.8113099685168 1074.829119116475 393.01832436380204 C 1075.5745298411869 386.8686858849298 1076.2550803495744 380.71130120128026 1077.0004910742862 374.561662722408 C 1077.7026711475849 368.76867711769324 1078.3745309688536 362.97134451843533 1079.1718630320972 357.1906870599195 C 1079.8222556546432 352.47534054646104 1080.727581787444 347.796777219707 1081.3432349899083 343.0767693341476 C 1081.8136419926047 339.4703156468081 1082.003968998878 335.8320012895471 1082.4289209688138 332.2199095450923 C 1082.727916131489 329.6784506623534 1083.0698926429297 327.14015541989517 1083.5146069477194 324.6201076927536 C 1084.15598303926 320.98564317402344 1084.9126861024415 317.37194765144665 1085.6859789055304 313.7632479036983 C 1085.9986241011575 312.30423699077255 1086.5263597869039 310.89233457326924 1086.771664884436 309.4205039880762 C 1086.8906553347451 308.7065612862214 1086.5427821832993 307.93578013367534 1086.771664884436 307.2491320302651 C 1086.933509394506 306.76359850005485 1087.6284681622049 306.62121145363307 1087.8573508633415 306.1634460513596 C 1088.7289102231987 304.42032733164496 1089.2610269032293 302.5263066319862 1090.0287228211525 300.73501615683193 C 1090.347491200581 299.9912232714988 1090.6655328925888 299.2369580602247 1091.114408800058 298.56364419902087 C 1091.3983028509335 298.1378031227075 1091.7423293766901 297.7068409212521 1092.2000947789636 297.47795822011534 C 1092.5237837991037 297.3161137100453 1093.0298821185613 297.7338568594231 1093.2857807578691 297.47795822011534 C 1093.541679397177 297.2220595808076 1093.0298821185613 296.64817088051757 1093.2857807578691 296.3922722412098 C 1094.2084364232146 295.4696165758642 1095.3757613351656 294.80443896310874 1096.5428386945857 294.22090028339875 C 1097.5664332518168 293.70910300478323 1098.6710541029445 293.3233547258862 1099.7998966313023 293.1352143044932 C 1100.8708106840845 292.9567286290295 1101.9712685891134 293.1352143044932 1103.056954568019 293.1352143044932 C 1104.5045358732264 293.1352143044932 1105.9865883449334 292.82118982922486 1107.399698483641 293.1352143044932 C 1109.3021562305344 293.5579826926917 1111.1569895913867 294.3039029902351 1112.8281283781687 295.3065862623043 C 1114.815163065683 296.4988070748129 1116.7170540350512 297.91738791057554 1118.2565582726963 299.6493301779264 C 1119.658495017753 301.2265090161151 1120.479069766114 303.2385663954783 1121.513616209413 305.07776007245405 C 1123.7367231761227 309.02995023549374 1126.3753503218466 312.7975524511939 1128.0277320828461 317.0203058404149 C 1129.6589285861098 321.18891912653356 1130.4068961508794 325.65906824386474 1131.2847900195627 330.04853758728126 C 1132.2183008308687 334.7160916438105 1132.6405797258703 339.47285736690895 1133.4561619773738 344.16245531305316 C 1134.0885175997387 347.79850014165083 1134.9037432825812 351.40036183909 1135.6275339351848 355.01931510210846 C 1136.3513245877884 358.6382683651269 1137.3215637692706 362.2165519426039 1137.798905892996 365.87617489116377 C 1138.4091977172964 370.55507887746677 1138.4927386391387 375.2878538237837 1138.8845918719014 379.99009261693567 C 1139.2165466228507 383.9735496283285 1139.4532749180667 387.96894923388703 1139.970277850807 391.9326383848965 C 1140.539712577736 396.2983046246859 1141.7760299039924 400.57343127625603 1142.141649808618 404.9608701317629 C 1142.5022950609728 409.28861316001985 1142.141649808618 413.6463579630071 1142.141649808618 417.98910187862924 C 1142.141649808618 423.4175317731569 1142.141649808618 428.8459616676845 1142.141649808618 434.27439156221214 C 1142.141649808618 439.34092613043794 1142.141649808618 444.4074606986638 1142.141649808618 449.4739952668896 C 1142.141649808618 454.17863450881356 1142.5024791669894 458.8971313338344 1142.141649808618 463.5879129926615 C 1141.776575252933 468.3338822165649 1140.7858601023104 473.01223277228917 1139.970277850807 477.70183071843337 C 1139.337922228442 481.33787554703105 1138.34637453018 484.9088995929282 1137.798905892996 488.5586905074887 C 1137.259391218116 492.15545500668793 1137.1381718840262 495.8034585520892 1136.7132199140904 499.415550296544 C 1136.414224751415 501.9570091792829 1136.0166462006603 504.4861224232918 1135.6275339351848 507.0153521488827 C 1135.2928069078832 509.19107782634325 1135.019382034219 511.380564671587 1134.5418479562793 513.5294680223159 C 1134.2935898105575 514.6466296780641 1133.9679592559892 515.7629314018014 1133.4561619773738 516.7865259590325 C 1132.8726232976637 517.9536033184525 1131.6974141770704 518.8057114232263 1131.2847900195627 520.0435838957491 C 1130.9414659678575 521.0735560508643 1131.4977105577193 522.2360391416823 1131.2847900195627 523.3006418324657 C 1131.1260884205212 524.0941498276726 1130.560999366959 524.748223137673 1130.1991040406572 525.4720137902767 C 1129.8372087143553 526.1958044428804 1129.3693167010595 526.8756898301646 1129.1134180617516 527.6433857480878 C 1128.9989767111833 527.9867097997928 1129.3693167010595 528.4731730876856 1129.1134180617516 528.7290717269933 C 1128.8575194224438 528.984970366301 1128.283630722154 528.4731730876856 1128.0277320828461 528.7290717269933 C 1126.7482388863073 530.008564923532 1124.7706741461295 533.0718156426154 1124.7706741461295 533.0718156426154"></path><text id="tlx107j3pt" x="1202.9400646273277" y="235.13719578110607" font-size="36" fill="#ff4136" opacity="1">Игрок1</text><text id="tlx107rs6u" x="371.3046047856914" y="248.16542752797244" font-size="36" fill="#0074d9" opacity="1">Игрок2</text><ellipse id="elx108lcdx" stroke="#0074d9" stroke-width="4" opacity="1" cx="420" cy="592" rx="30.3992" ry="30.3992"></ellipse><ellipse id="elx108rp5v" stroke="#ff4136" stroke-width="4" opacity="1" cx="1233" cy="590" rx="29.3135" ry="28.7707"></ellipse><path id="llx1091qjb" stroke="#ff4136" stroke-width="4" opacity="1" d="M 1215.968296374194 666.6111910479957 L 1215.968296374194 666.6111910479957 C 1215.968296374194 666.6111910479957 1215.968296374194 666.6111910479957 1215.968296374194 666.6111910479957"></path><text id="tlx10967vz" x="1233.3392720366826" y="684.6111910479957" font-size="36" fill="#ff4136" opacity="1">Золото</text><text id="tlx109ehby" x="345.2481412919587" y="695.468050837051" font-size="36" fill="#0074d9" opacity="1">Зотото</text><path id="llx10a099a" stroke="#001f3f" stroke-width="4" opacity="1" d="M 460.3308550559449 743.6948955502884 L 460.3308550559449 743.6948955502884 C 460.3308550559449 743.6948955502884 460.3308550559449 743.6948955502884 460.3308550559449 743.6948955502884"></path><text id="tlx10a4bud" x="463.5879129926615" y="761.6948955502884" font-size="36" fill="#001f3f" opacity="1">Бащня защиты</text><text id="tlx10akg0v" x="463.5879129926615" y="815.6948955502884" font-size="36" fill="#001f3f" opacity="1">Корабль</text><text id="tlx10avffp" x="463.5879129926615" y="869.6948955502884" font-size="36" fill="#001f3f" opacity="1">Персонажи</text></g>
			<g id="cursors"><circle class="opcursor" id="cursor-me" cx="0" cy="0" r="2" fill="#001f3f" style="transform: translate(121.597px, 657.926px);"></circle></g>
		<rect id="selectionRect" stroke="black" stroke-width="1" vector-effect="non-scaling-stroke" fill="none" stroke-dasharray="5 5" opacity="1" x="0" y="0" width="0" height="0" style="display: none;"></rect><image href="tools/hand/delete.svg" width="24" height="24" style="display: none;"></image><image href="tools/hand/duplicate.svg" width="24" height="24" style="display: none;"></image><image href="tools/hand/handle.svg" width="14" height="14" style="display: none;"></image><style>html, body, svg { padding: 0px; margin: 0px; font-family: "Liberation sans", sans-serif; },#canvas { transform-origin: 0px 0px; },#loadingMessage { font-size: 1.5em; background: linear-gradient(rgb(238, 238, 238), rgb(204, 204, 204)) rgb(238, 238, 238); padding: 20px; width: 40%; line-height: 50px; text-align: center; border-radius: 10px; position: fixed; top: 40%; left: 30%; z-index: 1; box-shadow: rgb(51, 51, 51) 0px 0px 2px; transition: all 1s ease 0s; },#loadingMessage.hidden { display: none; opacity: 0; z-index: -1; },#loadingMessage::after { content: "..."; },#menu::-webkit-scrollbar { display: none; },#menu { scrollbar-width: none; font-size: 16px; border-radius: 0px; overflow-y: scroll; position: fixed; margin-bottom: 30px; left: 0px; top: 0px; color: black; max-height: 100%; transition-duration: 1s; cursor: default; padding: 10px; },#menu.closed { border-radius: 3px; left: 10px; top: 10px; background-color: rgba(100, 200, 255, 0.7); width: 6vw; height: 2em; transition-duration: 1s; },#menu h2 { display: none; font-size: 4vh; text-align: center; letter-spacing: 0.5vw; text-shadow: white 0px 0px 5px; color: black; padding: 0px; margin: 0px; },#menu .tools { list-style-type: none; padding: 0px; },#settings { margin-bottom: 20px; },#menu .tool { position: relative; user-select: none; pointer-events: auto; white-space: nowrap; list-style-position: inside; border: 1px solid rgb(238, 238, 238); text-decoration: none; cursor: pointer; background: rgb(255, 255, 255); margin-top: 10px; height: 40px; line-height: 40px; border-radius: 0px; max-width: 40px; transition-duration: 0.2s; overflow: hidden; width: max-content; box-shadow: rgb(143, 162, 188) 0px 0px 3px inset; },#menu .tool:hover { max-width: 100%; },@media (hover: none), (pointer: coarse) {
  #menu .tool:hover { max-width: 40px; }
  #menu .tool:focus { max-width: 100%; }
  #menu { pointer-events: auto; }
  #menu:focus-within { pointer-events: none; }
},#menu .oneTouch:active { border-radius: 3px; background-color: rgb(238, 238, 255); },#menu .tool:active { box-shadow: rgb(221, 238, 255) 0px 0px 1px inset; background-color: rgb(238, 238, 255); },#menu .tool.curTool { box-shadow: rgb(0, 116, 217) 0px 0px 5px; background: linear-gradient(rgb(150, 225, 255), rgb(54, 162, 255)); },#menu .tool-icon { display: inline-block; text-align: center; width: 35px; height: 35px; margin: 2.5px; font-family: mono, monospace; overflow: hidden; },#menu img.tool-icon { pointer-events: none; },#menu .tool-icon > * { display: block; margin: auto; },#menu .tool-name { text-align: center; font-size: 23px; margin-right: 20px; margin-left: 20px; margin-bottom: 2.5px; display: inline-block; vertical-align: text-bottom; },#menu .tool-name.slider { display: inline-block; width: 150px; height: 30px; font-size: 0.9em; line-height: 15px; vertical-align: top; padding: 6px; },#menu .tool.hasSecondary .tool-icon { margin-top: 0px; margin-left: 0px; },#menu .tool .tool-icon.secondaryIcon { display: none; },#menu .tool.hasSecondary .tool-icon.secondaryIcon { display: block; position: absolute; bottom: 0px; left: 26px; width: 12px; height: 12px; },input { font-size: 16px; },#chooseColor { width: 100%; height: 100%; border: 0px; border-radius: 0px; color: black; display: block; margin: 0px; padding: 0px; },.colorPresets { margin-right: 20px; vertical-align: top; display: inline-block; },.colorPresetButton { width: 30px; height: 30px; border: 1px solid black; border-radius: 3px; display: inline-block; margin-right: 6px; padding: 0px; vertical-align: middle; },.rangeChooser { display: block; border: 0px; width: 100%; margin: 0px; background: transparent; },line { fill: none; stroke-linecap: round; stroke-linejoin: round; },path { fill: none; stroke-linecap: round; stroke-linejoin: round; },text { font-family: Arial, Helvetica, sans-serif; user-select: none; },circle.opcursor { pointer-events: none; transition: all 0.1s ease 0s; },#cursor-me { transition: all 0s ease 0s; },@media screen and (-ms-high-contrast: active), (-ms-high-contrast: none) {
  #chooseColor { color: transparent; }
  label.tool-name[for="chooseColor"] { line-height: 10px; }
}
path { fill: none; stroke-linecap: round; stroke-linejoin: round; }
line { fill: none; stroke-linecap: round; stroke-linejoin: round; }
#drawingArea rect { fill: none; }
#canvas ellipse { fill: none; }
#textToolInput { position: fixed; top: -1000px; left: 80px; width: 500px; },#textToolInput:focus { top: 5px; },text { font-family: Arial, Helvetica, sans-serif; user-select: none; }</style></svg>